<?xml version="1.0" encoding="UTF-8"?>
<!-- Generator: Adobe Illustrator 26.5.3, SVG Export Plug-In . SVG Version: 6.00 Build 0)  -->
<svg xmlns="http://www.w3.org/2000/svg" xmlns:xlink="http://www.w3.org/1999/xlink" version="1.1" id="Layer_1" x="0px" y="0px" viewBox="0 0 543 102" style="enable-background:new 0 0 543 102;" xml:space="preserve">
<style type="text/css">
	.st0{fill:#2A0A3D;}
	.st1{fill:#EA7603;}
	.st2{fill:#0093C5;}
	.st3{fill:#A74DCE;}
	.st4{fill:#C09BEC;}
	.st5{fill:#FFFFFF;}
</style>
<g>
	<g>
		<path class="st0" d="M523.85,33.88h-2.15V33h5.25v0.88h-2.13v5.68h-0.97V33.88z M527.79,33h0.9l2.69,3.57l2.78-3.57H535v6.56    h-0.97v-4.91L531.38,38l-2.65-3.37v4.93h-0.95V33z"></path>
		<path class="st0" d="M108,51c0-10.75,8.09-18.49,18.49-18.49c6.76,0,12.62,3.55,15.78,8.93l-6.02,3.85    c-2.02-3.75-5.18-6.02-9.76-6.02c-6.71,0-11.69,5.13-11.69,11.74c0,6.46,4.93,11.64,11.54,11.64c4.93,0,8.38-2.86,10.21-6.71    l6.26,3.3c-3.16,6.12-9.17,10.26-16.32,10.26C115.35,69.49,108,61.26,108,51z M155.54,33h6.9l12.77,36h-7.15l-2.17-6.26h-13.81    L149.92,69h-7.15L155.54,33z M154.36,56.18h9.27l-4.64-13.41L154.36,56.18z M177.97,33h11.54c8.63,0,13.56,5.08,13.56,12.62    c0,4.29-2.07,8.33-5.97,10.45l7.1,12.92h-7.79l-5.57-10.85h-6.02V69h-6.85V33z M184.83,39.41v12.43h4.09c5.57,0,7.3-2.91,7.3-6.51    c0-3.6-2.17-5.92-7.3-5.92H184.83z M205.71,63.03l6.26-4.93c1.78,3.06,4.59,4.83,7.79,4.83c3.5,0,5.38-2.27,5.38-4.73    c0-2.96-3.6-3.9-7.45-5.08c-4.83-1.48-10.21-3.35-10.21-10.26c0-5.77,5.03-10.36,11.98-10.36c5.87,0,9.22,2.22,12.13,5.23    l-5.67,4.29c-1.48-2.22-3.6-3.4-6.41-3.4c-3.21,0-4.93,1.73-4.93,3.99c0,2.76,3.45,3.7,7.3,4.98c4.88,1.58,10.41,3.75,10.41,10.65    c0,5.72-4.54,11.24-12.48,11.24C213.3,69.49,208.96,66.73,205.71,63.03z M245.94,51c0-10.75,8.09-18.49,18.49-18.49    c6.76,0,12.62,3.55,15.78,8.93l-6.02,3.85c-2.02-3.75-5.18-6.02-9.76-6.02c-6.71,0-11.69,5.13-11.69,11.74    c0,6.46,4.93,11.64,11.54,11.64c4.93,0,8.38-2.86,10.21-6.71l6.26,3.3c-3.16,6.12-9.17,10.26-16.32,10.26    C253.29,69.49,245.94,61.26,245.94,51z M282.38,51c0-10.21,8.19-18.49,18.39-18.49c10.26,0,18.44,8.28,18.44,18.49    c0,10.26-8.19,18.49-18.44,18.49C290.56,69.49,282.38,61.26,282.38,51z M312.41,51c0-6.46-5.18-11.74-11.64-11.74    c-6.46,0-11.59,5.28-11.59,11.74c0,6.46,5.13,11.74,11.59,11.74C307.23,62.74,312.41,57.46,312.41,51z M323.27,33h6.81l10.8,14.99    L352.07,33h6.46v36h-6.85V44.05l-10.85,14.65l-10.7-14.5V69h-6.85V33z M364.23,33h6.81l10.8,14.99L393.03,33h6.46v36h-6.85V44.05    l-10.85,14.65l-10.7-14.5V69h-6.85V33z M405.19,33h21.35v6.56h-14.5v8.09h14.5v6.56h-14.5v8.24h14.5V69h-21.35V33z M431.79,33    h11.54c8.63,0,13.56,5.08,13.56,12.62c0,4.29-2.07,8.33-5.97,10.45l7.1,12.92h-7.79l-5.57-10.85h-6.02V69h-6.85V33z M438.64,39.41    v12.43h4.09c5.57,0,7.3-2.91,7.3-6.51c0-3.6-2.17-5.92-7.3-5.92H438.64z M459.65,51c0-10.75,8.09-18.49,18.49-18.49    c6.76,0,12.62,3.55,15.78,8.93l-6.02,3.85c-2.02-3.75-5.18-6.02-9.76-6.02c-6.71,0-11.69,5.13-11.69,11.74    c0,6.46,4.93,11.64,11.54,11.64c4.93,0,8.38-2.86,10.21-6.71l6.26,3.3c-3.16,6.12-9.17,10.26-16.32,10.26    C467,69.49,459.65,61.26,459.65,51z M497.65,33H519v6.56h-14.5v8.09H519v6.56h-14.5v8.24H519V69h-21.35V33z"></path>
	</g>
	<g>
		<path class="st1" d="M64.5,87h-12c-0.83,0-1.5-0.67-1.5-1.5v-12c0-0.83,0.67-1.5,1.5-1.5h12c0.83,0,1.5,0.67,1.5,1.5v12    C66,86.33,65.33,87,64.5,87z"></path>
		<path class="st2" d="M46.5,69h-30c-0.83,0-1.5-0.67-1.5-1.5v-21c0-0.83,0.67-1.5,1.5-1.5h30c0.83,0,1.5,0.67,1.5,1.5v21    C48,68.33,47.33,69,46.5,69z"></path>
		<path class="st3" d="M91.5,69h-39c-0.83,0-1.5-0.67-1.5-1.5v-39c0-0.83,0.67-1.5,1.5-1.5h39c0.83,0,1.5,0.67,1.5,1.5v39    C93,68.33,92.33,69,91.5,69z"></path>
		<path class="st4" d="M46.5,42h-12c-0.83,0-1.5-0.67-1.5-1.5v-24c0-0.83,0.67-1.5,1.5-1.5h12c0.83,0,1.5,0.67,1.5,1.5v24    C48,41.33,47.33,42,46.5,42z"></path>
	</g>
</g>
</svg>
